<svg width="744" height="214" viewBox="0 0 744 214" fill="none" xmlns="http://www.w3.org/2000/svg">
<g clip-path="url(#clip0_8_18)">
<path fill-rule="evenodd" clip-rule="evenodd" d="M72.4414 183.669C73.7742 183.669 75.0771 184.065 76.1853 184.805C77.2935 185.546 78.1572 186.599 78.6672 187.83C79.1773 189.062 79.3107 190.417 79.0507 191.724C78.7907 193.032 78.1489 194.233 77.2064 195.175C76.264 196.118 75.0633 196.76 73.7561 197.02C72.4489 197.28 71.094 197.147 69.8626 196.637C68.6313 196.126 67.5788 195.262 66.8384 194.154C66.0979 193.046 65.7027 191.743 65.7027 190.409C65.7027 188.622 66.4127 186.907 67.6764 185.643C68.9402 184.379 70.6542 183.669 72.4414 183.669V183.669ZM37.9054 168.504C39.738 168.504 41.5294 169.047 43.0532 170.066C44.5769 171.084 45.7645 172.532 46.4659 174.225C47.1672 175.919 47.3506 177.782 46.9931 179.58C46.6356 181.377 45.7531 183.029 44.4573 184.325C43.1614 185.621 41.5104 186.504 39.7131 186.861C37.9157 187.219 36.0526 187.035 34.3595 186.334C32.6664 185.632 31.2193 184.445 30.2012 182.921C29.1831 181.396 28.6396 179.605 28.6396 177.772C28.6396 175.314 29.6158 172.956 31.3535 171.218C33.0912 169.48 35.448 168.504 37.9054 168.504ZM57.2793 144.913C59.9449 144.913 62.5506 145.704 64.767 147.185C66.9833 148.666 68.7108 150.772 69.7308 153.235C70.7509 155.698 71.0178 158.409 70.4978 161.024C69.9778 163.639 68.6941 166.04 66.8093 167.926C64.9244 169.811 62.523 171.095 59.9086 171.615C57.2942 172.135 54.5844 171.868 52.1217 170.848C49.659 169.828 47.5541 168.1 46.0732 165.883C44.5922 163.666 43.8018 161.06 43.8018 158.394C43.8018 154.819 45.2217 151.39 47.7493 148.862C50.2768 146.334 53.7048 144.913 57.2793 144.913ZM54.7522 117.953C56.918 117.953 59.0352 118.595 60.836 119.799C62.6368 121.002 64.0403 122.713 64.8691 124.714C65.698 126.715 65.9148 128.918 65.4923 131.042C65.0698 133.167 64.0268 135.119 62.4954 136.65C60.9639 138.182 59.0127 139.225 56.8886 139.648C54.7644 140.07 52.5626 139.854 50.5617 139.025C48.5608 138.196 46.8505 136.792 45.6473 134.991C44.444 133.189 43.8018 131.072 43.8018 128.906C43.8018 126.001 44.9555 123.215 47.0091 121.161C49.0627 119.107 51.848 117.953 54.7522 117.953V117.953ZM23.5856 136.488C24.9184 136.488 26.2212 136.883 27.3294 137.624C28.4376 138.365 29.3013 139.417 29.8114 140.649C30.3214 141.881 30.4549 143.236 30.1948 144.543C29.9348 145.851 29.293 147.052 28.3506 147.994C27.4082 148.937 26.2074 149.579 24.9002 149.839C23.5931 150.099 22.2381 149.966 21.0068 149.455C19.7754 148.945 18.723 148.081 17.9825 146.973C17.2421 145.865 16.8468 144.561 16.8468 143.228C16.8468 141.441 17.5568 139.726 18.8206 138.462C20.0843 137.198 21.7984 136.488 23.5856 136.488V136.488ZM65.7027 101.102C67.0355 101.102 68.3384 101.498 69.4465 102.238C70.5547 102.979 71.4184 104.032 71.9285 105.263C72.4385 106.495 72.572 107.85 72.312 109.157C72.0519 110.465 71.4101 111.666 70.4677 112.609C69.5253 113.551 68.3245 114.193 67.0174 114.453C65.7102 114.713 64.3552 114.58 63.1239 114.07C61.8925 113.559 60.8401 112.696 60.0996 111.587C59.3592 110.479 58.964 109.176 58.964 107.843C58.964 106.055 59.6739 104.341 60.9377 103.077C62.2014 101.812 63.9155 101.102 65.7027 101.102V101.102ZM35.3784 94.3622C38.044 94.3622 40.6497 95.1528 42.8661 96.6341C45.0824 98.1153 46.8099 100.221 47.8299 102.684C48.85 105.147 49.1169 107.857 48.5969 110.472C48.0769 113.087 46.7932 115.489 44.9084 117.375C43.0235 119.26 40.6221 120.544 38.0077 121.064C35.3933 121.584 32.6835 121.317 30.2208 120.297C27.7581 119.276 25.6532 117.549 24.1723 115.332C22.6913 113.115 21.9009 110.509 21.9009 107.843C21.9009 104.267 23.3208 100.839 25.8484 98.3105C28.3759 95.7825 31.8039 94.3622 35.3784 94.3622V94.3622ZM8.42342 99.4173C10.0894 99.4173 11.718 99.9115 13.1032 100.837C14.4885 101.763 15.5681 103.079 16.2057 104.618C16.8432 106.158 17.01 107.852 16.685 109.486C16.36 111.121 15.5577 112.622 14.3797 113.8C13.2016 114.978 11.7007 115.781 10.0668 116.106C8.43277 116.431 6.7391 116.264 5.19992 115.626C3.66074 114.989 2.34518 113.909 1.4196 112.523C0.494025 111.138 0 109.509 0 107.843C0 105.608 0.887465 103.465 2.46716 101.885C4.04686 100.305 6.18939 99.4173 8.42342 99.4173V99.4173ZM54.7522 75.8268C56.918 75.8268 59.0352 76.4691 60.836 77.6726C62.6368 78.8761 64.0403 80.5867 64.8691 82.5881C65.698 84.5894 65.9148 86.7917 65.4923 88.9163C65.0698 91.0409 64.0268 92.9925 62.4954 94.5243C60.9639 96.0561 59.0127 97.0992 56.8886 97.5218C54.7644 97.9444 52.5626 97.7275 50.5617 96.8986C48.5608 96.0696 46.8505 94.6657 45.6473 92.8646C44.444 91.0634 43.8018 88.9458 43.8018 86.7795C43.8018 83.8747 44.9555 81.0888 47.0091 79.0348C49.0627 76.9807 51.848 75.8268 54.7522 75.8268V75.8268ZM24.4279 67.4016C25.5941 67.4016 26.7341 67.7475 27.7038 68.3955C28.6734 69.0435 29.4292 69.9646 29.8755 71.0423C30.3218 72.1199 30.4385 73.3058 30.211 74.4498C29.9835 75.5938 29.4219 76.6447 28.5973 77.4695C27.7727 78.2943 26.722 78.856 25.5783 79.0835C24.4345 79.3111 23.2489 79.1943 22.1715 78.7479C21.094 78.3015 20.1732 77.5456 19.5253 76.5758C18.8773 75.6059 18.5315 74.4657 18.5315 73.2992C18.5315 71.7351 19.1528 70.235 20.2585 69.129C21.3643 68.0229 22.8641 67.4016 24.4279 67.4016V67.4016ZM77.4955 72.4567C78.8283 72.4567 80.1312 72.852 81.2393 73.5926C82.3475 74.3332 83.2112 75.3859 83.7213 76.6175C84.2313 77.8491 84.3648 79.2043 84.1047 80.5118C83.8447 81.8193 83.2029 83.0202 82.2605 83.9629C81.3181 84.9055 80.1173 85.5474 78.8102 85.8075C77.503 86.0676 76.148 85.9341 74.9167 85.4239C73.6853 84.9138 72.6329 84.0499 71.8924 82.9415C71.152 81.8331 70.7567 80.5299 70.7567 79.1969C70.7567 77.4093 71.4667 75.6949 72.7305 74.4308C73.9942 73.1668 75.7083 72.4567 77.4955 72.4567V72.4567ZM106.135 60.6614C107.468 60.6614 108.771 61.0567 109.879 61.7973C110.987 62.538 111.851 63.5906 112.361 64.8222C112.871 66.0538 113.004 67.4091 112.744 68.7165C112.484 70.024 111.843 71.225 110.9 72.1676C109.958 73.1102 108.757 73.7522 107.45 74.0122C106.143 74.2723 104.788 74.1388 103.556 73.6287C102.325 73.1185 101.273 72.2546 100.532 71.1462C99.7916 70.0378 99.3964 68.7347 99.3964 67.4016C99.3964 65.614 100.106 63.8996 101.37 62.6356C102.634 61.3715 104.348 60.6614 106.135 60.6614V60.6614ZM83.3919 45.4961C85.5577 45.4961 87.6748 46.1384 89.4756 47.3419C91.2764 48.5454 92.68 50.256 93.5088 52.2574C94.3376 54.2587 94.5544 56.461 94.1319 58.5856C93.7094 60.7102 92.6665 62.6618 91.135 64.1936C89.6036 65.7254 87.6524 66.7685 85.5282 67.1911C83.404 67.6137 81.2023 67.3968 79.2013 66.5678C77.2004 65.7389 75.4902 64.335 74.2869 62.5338C73.0837 60.7327 72.4414 58.6151 72.4414 56.4488C72.4414 53.544 73.5951 50.7581 75.6487 48.7041C77.7024 46.65 80.4876 45.4961 83.3919 45.4961V45.4961ZM54.7522 43.811C57.2512 43.811 59.6941 44.5522 61.772 45.9409C63.8498 47.3295 65.4693 49.3033 66.4256 51.6125C67.3819 53.9218 67.6321 56.4628 67.1446 58.9143C66.6571 61.3658 65.4537 63.6177 63.6866 65.3851C61.9196 67.1525 59.6682 68.3561 57.2172 68.8438C54.7663 69.3314 52.2258 69.0811 49.917 68.1246C47.6082 67.1681 45.6349 65.5483 44.2465 63.47C42.8581 61.3917 42.1171 58.9483 42.1171 56.4488C42.1171 53.0971 43.4483 49.8826 45.8179 47.5125C48.1874 45.1425 51.4012 43.811 54.7522 43.811V43.811ZM35.3784 30.3307C37.0444 30.3307 38.673 30.8248 40.0582 31.7506C41.4434 32.6764 42.5231 33.9922 43.1606 35.5317C43.7982 37.0712 43.965 38.7653 43.6399 40.3996C43.3149 42.0339 42.5127 43.5351 41.3346 44.7134C40.1566 45.8917 38.6557 46.6941 37.0217 47.0192C35.3877 47.3443 33.694 47.1775 32.1549 46.5398C30.6157 45.9021 29.3001 44.8222 28.3746 43.4367C27.449 42.0512 26.955 40.4223 26.955 38.7559C26.955 36.5214 27.8424 34.3784 29.4221 32.7984C31.0018 31.2184 33.1443 30.3307 35.3784 30.3307V30.3307ZM71.5991 18.5354C72.7653 18.5354 73.9053 18.8813 74.875 19.5294C75.8446 20.1774 76.6004 21.0985 77.0467 22.1761C77.4929 23.2538 77.6097 24.4396 77.3822 25.5836C77.1547 26.7277 76.5931 27.7785 75.7685 28.6033C74.9438 29.4281 73.8932 29.9898 72.7494 30.2174C71.6056 30.4449 70.4201 30.3282 69.3426 29.8818C68.2652 29.4354 67.3443 28.6795 66.6964 27.7096C66.0485 26.7398 65.7027 25.5995 65.7027 24.4331C65.7027 22.8689 66.3239 21.3688 67.4297 20.2628C68.5355 19.1568 70.0353 18.5354 71.5991 18.5354ZM140.671 18.5354C141.837 18.5354 142.977 18.8813 143.947 19.5294C144.917 20.1774 145.672 21.0985 146.119 22.1761C146.565 23.2538 146.682 24.4396 146.454 25.5836C146.227 26.7277 145.665 27.7785 144.841 28.6033C144.016 29.4281 142.965 29.9898 141.821 30.2174C140.678 30.4449 139.492 30.3282 138.415 29.8818C137.337 29.4354 136.416 28.6795 135.768 27.7096C135.121 26.7398 134.775 25.5995 134.775 24.4331C134.775 22.8689 135.396 21.3688 136.502 20.2628C137.608 19.1568 139.107 18.5354 140.671 18.5354V18.5354ZM105.293 23.5906C107.792 23.5906 110.235 24.3317 112.312 25.7204C114.39 27.1091 116.01 29.0828 116.966 31.3921C117.922 33.7013 118.173 36.2424 117.685 38.6939C117.198 41.1453 115.994 43.3972 114.227 45.1646C112.46 46.932 110.209 48.1357 107.758 48.6233C105.307 49.1109 102.766 48.8607 100.458 47.9041C98.1488 46.9476 96.1754 45.3278 94.7871 43.2495C93.3987 41.1713 92.6576 38.7279 92.6576 36.2283C92.6576 32.8766 93.9888 29.6621 96.3584 27.2921C98.7279 24.922 101.942 23.5906 105.293 23.5906V23.5906ZM104.45 0C106.116 0 107.745 0.494129 109.13 1.4199C110.515 2.34567 111.595 3.66151 112.233 5.20101C112.87 6.74052 113.037 8.43454 112.712 10.0689C112.387 11.7032 111.585 13.2044 110.407 14.3827C109.229 15.561 107.728 16.3634 106.094 16.6885C104.46 17.0136 102.766 16.8467 101.227 16.2091C99.6878 15.5714 98.3722 14.4915 97.4466 13.106C96.521 11.7205 96.027 10.0915 96.027 8.4252C96.027 6.1907 96.9145 4.04771 98.4942 2.46768C100.074 0.887652 102.216 0 104.45 0V0ZM127.194 43.811C129.359 43.811 131.477 44.4534 133.277 45.6569C135.078 46.8604 136.482 48.571 137.311 50.5723C138.139 52.5737 138.356 54.7759 137.934 56.9006C137.511 59.0252 136.468 60.9768 134.937 62.5086C133.405 64.0403 131.454 65.0835 129.33 65.5061C127.206 65.9287 125.004 65.7118 123.003 64.8828C121.002 64.0538 119.292 62.65 118.089 60.8488C116.885 59.0476 116.243 56.93 116.243 54.7638C116.243 51.8589 117.397 49.0731 119.451 47.019C121.504 44.965 124.289 43.811 127.194 43.811ZM134.775 70.7717C136.108 70.7717 137.41 71.167 138.519 71.9076C139.627 72.6482 140.491 73.7009 141.001 74.9325C141.511 76.1641 141.644 77.5193 141.384 78.8268C141.124 80.1342 140.482 81.3352 139.54 82.2778C138.597 83.2205 137.397 83.8624 136.089 84.1225C134.782 84.3825 133.427 84.2491 132.196 83.7389C130.965 83.2288 129.912 82.3649 129.172 81.2564C128.431 80.148 128.036 78.8449 128.036 77.5118C128.036 75.7242 128.746 74.0098 130.01 72.7458C131.274 71.4818 132.988 70.7717 134.775 70.7717ZM155.833 43.811C157.999 43.811 160.116 44.4534 161.917 45.6569C163.718 46.8604 165.121 48.571 165.95 50.5723C166.779 52.5737 166.996 54.7759 166.573 56.9006C166.151 59.0252 165.108 60.9768 163.576 62.5086C162.045 64.0403 160.094 65.0835 157.97 65.5061C155.845 65.9287 153.644 65.7118 151.643 64.8828C149.642 64.0538 147.932 62.65 146.728 60.8488C145.525 59.0476 144.883 56.93 144.883 54.7638C144.883 51.8589 146.037 49.0731 148.09 47.019C150.144 44.965 152.929 43.811 155.833 43.811V43.811ZM176.05 26.9606C177.882 26.9606 179.674 27.5042 181.197 28.5225C182.721 29.5409 183.909 30.9883 184.61 32.6817C185.311 34.3752 185.495 36.2386 185.137 38.0364C184.78 39.8341 183.897 41.4855 182.601 42.7816C181.306 44.0777 179.655 44.9604 177.857 45.318C176.06 45.6756 174.197 45.4921 172.504 44.7906C170.811 44.0891 169.363 42.9013 168.345 41.3772C167.327 39.8531 166.784 38.0613 166.784 36.2283C166.784 33.7704 167.76 31.4131 169.498 29.6751C171.235 27.937 173.592 26.9606 176.05 26.9606V26.9606ZM107.82 197.15C109.486 197.15 111.114 197.644 112.5 198.57C113.885 199.495 114.964 200.811 115.602 202.351C116.24 203.89 116.406 205.584 116.081 207.218C115.756 208.853 114.954 210.354 113.776 211.532C112.598 212.711 111.097 213.513 109.463 213.838C107.829 214.163 106.135 213.996 104.596 213.359C103.057 212.721 101.742 211.641 100.816 210.256C99.8904 208.87 99.3964 207.241 99.3964 205.575C99.3964 203.34 100.284 201.197 101.864 199.617C103.443 198.037 105.586 197.15 107.82 197.15ZM141.513 183.669C142.846 183.669 144.149 184.065 145.257 184.805C146.366 185.546 147.229 186.599 147.739 187.83C148.249 189.062 148.383 190.417 148.123 191.724C147.863 193.032 147.221 194.233 146.279 195.175C145.336 196.118 144.135 196.76 142.828 197.02C141.521 197.28 140.166 197.147 138.935 196.637C137.703 196.126 136.651 195.262 135.91 194.154C135.17 193.046 134.775 191.743 134.775 190.409C134.775 188.622 135.485 186.907 136.748 185.643C138.012 184.379 139.726 183.669 141.513 183.669ZM107.82 139.858C109.153 139.858 110.455 140.254 111.564 140.994C112.672 141.735 113.536 142.787 114.046 144.019C114.556 145.251 114.689 146.606 114.429 147.913C114.169 149.221 113.527 150.422 112.585 151.364C111.642 152.307 110.442 152.949 109.134 153.209C107.827 153.469 106.472 153.336 105.241 152.826C104.01 152.315 102.957 151.451 102.217 150.343C101.476 149.235 101.081 147.932 101.081 146.598C101.081 144.811 101.791 143.096 103.055 141.832C104.319 140.568 106.033 139.858 107.82 139.858ZM79.1802 129.748C80.513 129.748 81.8158 130.143 82.924 130.884C84.0322 131.625 84.8959 132.677 85.406 133.909C85.916 135.14 86.0494 136.496 85.7894 137.803C85.5294 139.111 84.8876 140.312 83.9452 141.254C83.0027 142.197 81.802 142.839 80.4948 143.099C79.1876 143.359 77.8327 143.225 76.6014 142.715C75.37 142.205 74.3176 141.341 73.5771 140.233C72.8367 139.124 72.4414 137.821 72.4414 136.488C72.4414 134.701 73.1514 132.986 74.4152 131.722C75.6789 130.458 77.3929 129.748 79.1802 129.748V129.748ZM134.775 128.063C136.108 128.063 137.41 128.458 138.519 129.199C139.627 129.94 140.491 130.992 141.001 132.224C141.511 133.455 141.644 134.811 141.384 136.118C141.124 137.426 140.482 138.627 139.54 139.569C138.597 140.512 137.397 141.154 136.089 141.414C134.782 141.674 133.427 141.54 132.196 141.03C130.965 140.52 129.912 139.656 129.172 138.548C128.431 137.439 128.036 136.136 128.036 134.803C128.036 133.016 128.746 131.301 130.01 130.037C131.274 128.773 132.988 128.063 134.775 128.063ZM107.82 165.134C110.485 165.134 113.091 165.924 115.307 167.406C117.524 168.887 119.251 170.992 120.271 173.455C121.291 175.919 121.558 178.629 121.038 181.244C120.518 183.859 119.235 186.261 117.35 188.146C115.465 190.031 113.064 191.315 110.449 191.835C107.835 192.356 105.125 192.089 102.662 191.068C100.2 190.048 98.0946 188.32 96.6137 186.103C95.1328 183.887 94.3423 181.28 94.3423 178.614C94.3423 175.039 95.7623 171.61 98.2898 169.082C100.817 166.554 104.245 165.134 107.82 165.134ZM129.721 146.598C132.053 146.598 134.333 147.29 136.272 148.586C138.212 149.882 139.723 151.725 140.616 153.88C141.508 156.035 141.742 158.407 141.287 160.695C140.832 162.983 139.709 165.085 138.059 166.734C136.41 168.384 134.309 169.507 132.021 169.962C129.734 170.417 127.363 170.184 125.208 169.291C123.053 168.398 121.211 166.887 119.915 164.947C118.62 163.007 117.928 160.727 117.928 158.394C117.928 155.265 119.17 152.265 121.382 150.053C123.594 147.841 126.593 146.598 129.721 146.598ZM158.36 144.913C160.693 144.913 162.973 145.605 164.912 146.901C166.851 148.197 168.363 150.039 169.255 152.195C170.148 154.35 170.382 156.722 169.927 159.01C169.472 161.298 168.348 163.4 166.699 165.049C165.05 166.699 162.949 167.822 160.661 168.277C158.373 168.732 156.002 168.499 153.847 167.606C151.693 166.713 149.851 165.201 148.555 163.262C147.259 161.322 146.568 159.042 146.568 156.709C146.568 153.58 147.81 150.58 150.022 148.368C152.233 146.156 155.233 144.913 158.36 144.913V144.913ZM177.734 165.134C179.567 165.134 181.358 165.677 182.882 166.696C184.406 167.714 185.593 169.162 186.295 170.855C186.996 172.548 187.179 174.412 186.822 176.21C186.464 178.007 185.582 179.659 184.286 180.955C182.99 182.251 181.339 183.134 179.542 183.491C177.744 183.849 175.881 183.665 174.188 182.964C172.495 182.262 171.048 181.075 170.03 179.55C169.012 178.026 168.468 176.235 168.468 174.402C168.468 171.944 169.445 169.586 171.182 167.848C172.92 166.11 175.277 165.134 177.734 165.134ZM86.7613 148.283C88.927 148.283 91.0442 148.926 92.845 150.129C94.6458 151.333 96.0493 153.043 96.8782 155.045C97.707 157.046 97.9238 159.248 97.5013 161.373C97.0788 163.498 96.0358 165.449 94.5044 166.981C92.9729 168.513 91.0218 169.556 88.8976 169.979C86.7734 170.401 84.5716 170.184 82.5707 169.355C80.5698 168.526 78.8595 167.122 77.6563 165.321C76.453 163.52 75.8108 161.402 75.8108 159.236C75.8108 156.331 76.9645 153.546 79.0181 151.491C81.0717 149.437 83.857 148.283 86.7613 148.283V148.283Z" fill="url(#paint0_linear_8_18)"/>
</g>
<path d="M237.7 147.8C232.7 147.8 228.3 146.833 224.5 144.9C220.7 142.9 217.767 140.133 215.7 136.6C213.633 133.067 212.6 128.967 212.6 124.3V99.6C212.6 94.9333 213.633 90.8333 215.7 87.3C217.767 83.7667 220.7 81.0333 224.5 79.1C228.3 77.1667 232.7 76.2 237.7 76.2C242.633 76.2 247 77.1333 250.8 79C254.6 80.8667 257.533 83.5 259.6 86.9C261.667 90.3 262.7 94.2333 262.7 98.7C262.7 99.0333 262.567 99.3333 262.3 99.6C262.1 99.8 261.833 99.9 261.5 99.9L252.3 100.4C251.5 100.4 251.1 100.033 251.1 99.3C251.1 95.3667 249.867 92.2 247.4 89.8C245 87.4 241.767 86.2 237.7 86.2C233.633 86.2 230.367 87.4 227.9 89.8C225.433 92.2 224.2 95.3667 224.2 99.3V124.8C224.2 128.667 225.433 131.8 227.9 134.2C230.367 136.6 233.633 137.8 237.7 137.8C241.767 137.8 245 136.633 247.4 134.3C249.867 131.9 251.1 128.733 251.1 124.8C251.1 124.067 251.5 123.7 252.3 123.7L261.5 124.1C261.833 124.1 262.1 124.2 262.3 124.4C262.567 124.6 262.7 124.833 262.7 125.1C262.7 129.633 261.667 133.633 259.6 137.1C257.533 140.5 254.6 143.133 250.8 145C247 146.867 242.633 147.8 237.7 147.8ZM297.84 95.3C299.973 95.3 301.84 95.7333 303.44 96.6C303.973 96.8667 304.173 97.3667 304.04 98.1L302.34 107.1C302.273 107.9 301.807 108.133 300.94 107.8C299.94 107.467 298.773 107.3 297.44 107.3C296.573 107.3 295.907 107.333 295.44 107.4C292.64 107.533 290.307 108.533 288.44 110.4C286.573 112.2 285.64 114.567 285.64 117.5V145.8C285.64 146.133 285.507 146.433 285.24 146.7C285.04 146.9 284.773 147 284.44 147H275.24C274.907 147 274.607 146.9 274.34 146.7C274.14 146.433 274.04 146.133 274.04 145.8V97.1C274.04 96.7667 274.14 96.5 274.34 96.3C274.607 96.0333 274.907 95.9 275.24 95.9H284.44C284.773 95.9 285.04 96.0333 285.24 96.3C285.507 96.5 285.64 96.7667 285.64 97.1V101.6C285.64 101.867 285.673 102.033 285.74 102.1C285.873 102.1 286.007 102 286.14 101.8C288.94 97.4667 292.84 95.3 297.84 95.3ZM312.298 166.9C312.098 166.9 311.931 166.767 311.798 166.5C311.664 166.3 311.598 166.033 311.598 165.7V158.5C311.598 158.167 311.698 157.867 311.898 157.6C312.164 157.4 312.464 157.3 312.798 157.3H312.898C315.631 157.233 317.764 156.933 319.298 156.4C320.831 155.933 322.098 155 323.098 153.6C324.098 152.2 324.998 150.1 325.798 147.3C325.864 147.167 325.864 146.967 325.798 146.7L309.298 97.2C309.231 97.0667 309.198 96.9 309.198 96.7C309.198 96.1 309.531 95.8 310.198 95.8H319.998C320.731 95.8 321.198 96.1333 321.398 96.8L331.398 132C331.464 132.2 331.564 132.3 331.698 132.3C331.831 132.3 331.931 132.2 331.998 132L341.998 96.8C342.198 96.1333 342.664 95.8 343.398 95.8H352.898C353.298 95.8 353.564 95.9333 353.698 96.2C353.898 96.4 353.931 96.7333 353.798 97.2L336.198 149.8C334.531 154.533 332.898 158.067 331.298 160.4C329.698 162.733 327.498 164.4 324.698 165.4C321.964 166.4 318.064 166.9 312.998 166.9H312.298ZM405.523 109.1C406.723 112.5 407.323 116.667 407.323 121.6C407.323 126.333 406.757 130.4 405.623 133.8C404.157 138.2 401.79 141.633 398.523 144.1C395.323 146.567 391.257 147.8 386.323 147.8C381.59 147.8 377.79 146.1 374.923 142.7C374.79 142.567 374.657 142.533 374.523 142.6C374.39 142.667 374.323 142.8 374.323 143V164.7C374.323 165.033 374.19 165.3 373.923 165.5C373.723 165.767 373.457 165.9 373.123 165.9H363.923C363.59 165.9 363.29 165.767 363.023 165.5C362.823 165.3 362.723 165.033 362.723 164.7V97.1C362.723 96.7667 362.823 96.5 363.023 96.3C363.29 96.0333 363.59 95.9 363.923 95.9H373.123C373.457 95.9 373.723 96.0333 373.923 96.3C374.19 96.5 374.323 96.7667 374.323 97.1V100.1C374.323 100.3 374.39 100.433 374.523 100.5C374.657 100.567 374.79 100.5 374.923 100.3C377.857 96.8333 381.69 95.1 386.423 95.1C391.157 95.1 395.157 96.3333 398.423 98.8C401.69 101.267 404.057 104.7 405.523 109.1ZM392.523 133.6C394.523 130.533 395.523 126.467 395.523 121.4C395.523 116.533 394.723 112.7 393.123 109.9C391.257 106.633 388.423 105 384.623 105C381.157 105 378.557 106.6 376.823 109.8C375.29 112.4 374.523 116.267 374.523 121.4C374.523 126.667 375.357 130.667 377.023 133.4C378.757 136.333 381.257 137.8 384.523 137.8C388.057 137.8 390.723 136.4 392.523 133.6ZM445.671 104.1C445.671 104.433 445.538 104.733 445.271 105C445.071 105.2 444.804 105.3 444.471 105.3H434.271C433.938 105.3 433.771 105.467 433.771 105.8V129.9C433.771 132.433 434.304 134.267 435.371 135.4C436.504 136.533 438.271 137.1 440.671 137.1H443.671C444.004 137.1 444.271 137.233 444.471 137.5C444.738 137.7 444.871 137.967 444.871 138.3V145.8C444.871 146.533 444.471 146.967 443.671 147.1L438.471 147.2C433.204 147.2 429.271 146.3 426.671 144.5C424.071 142.7 422.738 139.3 422.671 134.3V105.8C422.671 105.467 422.504 105.3 422.171 105.3H416.471C416.138 105.3 415.838 105.2 415.571 105C415.371 104.733 415.271 104.433 415.271 104.1V97.1C415.271 96.7667 415.371 96.5 415.571 96.3C415.838 96.0333 416.138 95.9 416.471 95.9H422.171C422.504 95.9 422.671 95.7333 422.671 95.4V83.7C422.671 83.3667 422.771 83.1 422.971 82.9C423.238 82.6333 423.538 82.5 423.871 82.5H432.571C432.904 82.5 433.171 82.6333 433.371 82.9C433.638 83.1 433.771 83.3667 433.771 83.7V95.4C433.771 95.7333 433.938 95.9 434.271 95.9H444.471C444.804 95.9 445.071 96.0333 445.271 96.3C445.538 96.5 445.671 96.7667 445.671 97.1V104.1ZM476.697 147.8C471.43 147.8 466.897 146.467 463.097 143.8C459.364 141.133 456.73 137.433 455.197 132.7C454.064 129.1 453.497 125.3 453.497 121.3C453.497 117.033 454.03 113.233 455.097 109.9C456.63 105.233 459.297 101.6 463.097 99C466.897 96.4 471.464 95.1 476.797 95.1C481.864 95.1 486.23 96.4 489.897 99C493.63 101.6 496.264 105.2 497.797 109.8C498.997 113 499.597 116.8 499.597 121.2C499.597 125.4 499.03 129.2 497.897 132.6C496.364 137.333 493.73 141.067 489.997 143.8C486.264 146.467 481.83 147.8 476.697 147.8ZM476.697 137.8C479.164 137.8 481.264 137.1 482.997 135.7C484.797 134.3 486.097 132.333 486.897 129.8C487.564 127.6 487.897 124.8 487.897 121.4C487.897 117.8 487.564 115 486.897 113C486.164 110.467 484.897 108.533 483.097 107.2C481.297 105.8 479.097 105.1 476.497 105.1C474.03 105.1 471.897 105.8 470.097 107.2C468.297 108.533 466.997 110.467 466.197 113C465.53 115.333 465.197 118.133 465.197 121.4C465.197 124.667 465.53 127.467 466.197 129.8C466.93 132.333 468.197 134.3 469.997 135.7C471.864 137.1 474.097 137.8 476.697 137.8ZM522.863 147C522.33 147 521.963 146.733 521.763 146.2L507.563 97.5L507.463 97.2C507.463 96.6667 507.797 96.4 508.463 96.4H513.663C514.263 96.4 514.63 96.7 514.763 97.3L525.363 136.7C525.43 136.833 525.497 136.9 525.563 136.9C525.697 136.9 525.797 136.833 525.863 136.7L536.663 97.3C536.797 96.7 537.163 96.4 537.763 96.4H542.563C543.163 96.4 543.53 96.6667 543.663 97.2L554.563 136.6C554.63 136.733 554.73 136.8 554.863 136.8C554.997 136.8 555.097 136.733 555.163 136.6L566.063 97.3C566.197 96.7 566.563 96.4 567.163 96.4L572.363 96.5C572.697 96.5 572.93 96.6 573.063 96.8C573.263 97 573.33 97.2667 573.263 97.6L558.863 146.2C558.663 146.733 558.297 147 557.763 147H552.463C551.93 147 551.563 146.733 551.363 146.2L540.463 108.8C540.397 108.667 540.297 108.6 540.163 108.6C540.097 108.6 540.03 108.667 539.963 108.8L529.363 146.2C529.163 146.733 528.797 147 528.263 147H522.863ZM602.073 147.8C597.273 147.8 593.14 146.567 589.673 144.1C586.207 141.633 583.807 138.233 582.473 133.9C581.54 130.833 581.073 126.733 581.073 121.6C581.073 116.467 581.54 112.4 582.473 109.4C583.74 105.133 586.107 101.767 589.573 99.3C593.04 96.8333 597.24 95.6 602.173 95.6C606.907 95.6 610.973 96.8333 614.373 99.3C617.84 101.767 620.207 105.1 621.473 109.3C622.407 112.167 622.873 116.267 622.873 121.6C622.873 127 622.407 131.1 621.473 133.9C620.207 138.233 617.84 141.633 614.373 144.1C610.973 146.567 606.873 147.8 602.073 147.8ZM602.073 141.6C605.273 141.6 608.007 140.733 610.273 139C612.54 137.2 614.073 134.8 614.873 131.8C615.473 129.4 615.773 126.033 615.773 121.7C615.773 117.3 615.507 113.933 614.973 111.6C614.173 108.6 612.607 106.233 610.273 104.5C608.007 102.7 605.24 101.8 601.973 101.8C598.707 101.8 595.94 102.7 593.673 104.5C591.407 106.233 589.873 108.6 589.073 111.6C588.54 113.933 588.273 117.3 588.273 121.7C588.273 126.1 588.54 129.467 589.073 131.8C589.807 134.8 591.307 137.2 593.573 139C595.907 140.733 598.74 141.6 602.073 141.6ZM657.666 95.9C659.866 95.9 661.766 96.3333 663.366 97.2C663.899 97.4667 664.099 97.9 663.966 98.5L662.866 103.4C662.666 104.067 662.232 104.267 661.566 104C660.432 103.533 659.132 103.3 657.666 103.3L656.366 103.4C652.899 103.533 650.032 104.833 647.766 107.3C645.499 109.7 644.366 112.767 644.366 116.5V146C644.366 146.667 644.032 147 643.366 147H638.266C637.599 147 637.266 146.667 637.266 146V97.4C637.266 96.7333 637.599 96.4 638.266 96.4H643.366C644.032 96.4 644.366 96.7333 644.366 97.4V103.5C644.366 103.7 644.399 103.833 644.466 103.9C644.599 103.9 644.699 103.833 644.766 103.7C646.166 101.233 647.932 99.3333 650.066 98C652.266 96.6 654.799 95.9 657.666 95.9ZM674.691 147C674.025 147 673.691 146.667 673.691 146V78C673.691 77.3333 674.025 77 674.691 77H679.791C680.458 77 680.791 77.3333 680.791 78V146C680.791 146.667 680.458 147 679.791 147H674.691ZM728.138 78C728.138 77.3333 728.472 77 729.138 77H734.238C734.905 77 735.238 77.3333 735.238 78V146C735.238 146.667 734.905 147 734.238 147H729.138C728.472 147 728.138 146.667 728.138 146V141.8C728.138 141.667 728.072 141.6 727.938 141.6C727.872 141.533 727.772 141.567 727.638 141.7C726.172 143.633 724.338 145.133 722.138 146.2C720.005 147.267 717.605 147.8 714.938 147.8C710.272 147.8 706.338 146.6 703.138 144.2C700.005 141.8 697.838 138.533 696.638 134.4C695.705 131.4 695.238 127.167 695.238 121.7C695.238 116.167 695.638 112.033 696.438 109.3C697.638 105.033 699.838 101.7 703.038 99.3C706.238 96.8333 710.205 95.6 714.938 95.6C717.538 95.6 719.938 96.1333 722.138 97.2C724.338 98.2 726.172 99.6667 727.638 101.6C727.772 101.733 727.872 101.8 727.938 101.8C728.072 101.733 728.138 101.633 728.138 101.5V78ZM726.338 133.9C726.938 132.567 727.372 131 727.638 129.2C727.905 127.4 728.038 124.9 728.038 121.7C728.038 118.5 727.905 116 727.638 114.2C727.372 112.333 726.905 110.7 726.238 109.3C725.438 107.033 724.105 105.233 722.238 103.9C720.438 102.5 718.272 101.8 715.738 101.8C713.072 101.8 710.772 102.467 708.838 103.8C706.905 105.133 705.505 106.9 704.638 109.1C703.838 110.567 703.238 112.233 702.838 114.1C702.505 115.9 702.338 118.433 702.338 121.7C702.338 124.833 702.472 127.3 702.738 129.1C703.005 130.833 703.472 132.4 704.138 133.8C704.938 136.2 706.338 138.1 708.338 139.5C710.405 140.9 712.838 141.6 715.638 141.6C718.305 141.6 720.538 140.9 722.338 139.5C724.138 138.1 725.472 136.233 726.338 133.9Z" fill="#273167"/>
<defs>
<linearGradient id="paint0_linear_8_18" x1="96.4302" y1="6.40399" x2="93.4901" y2="214" gradientUnits="userSpaceOnUse">
<stop stop-color="#E94FCA"/>
<stop offset="1" stop-color="#FDC800"/>
</linearGradient>
<clipPath id="clip0_8_18">
<rect width="187" height="214" fill="white"/>
</clipPath>
</defs>
</svg>
